<?xml version="1.0" encoding="UTF-8"?>
<svg id="Layer_1" xmlns="http://www.w3.org/2000/svg" version="1.1" viewBox="0 0 267.32 267.8">
  <!-- Generator: Adobe Illustrator 29.4.0, SVG Export Plug-In . SVG Version: 2.1.0 Build 152)  -->
  <defs>
    <style>
      .st0 {
        fill: #ff1a08;
      }

      .st1 {
        fill: #fff;
      }

      .st2 {
        fill: #b56600;
      }

      .st3 {
        fill: #ffd699;
      }
    </style>
  </defs>
  <g>
    <path class="st3" d="M241.73,146.55c-10.93,0-19.9,8.73-20.67,19.76,0,0,0,0-.01,0-.12,0-.23.03-.35.04v-11.53c0-11.92-11.99-20.83-22.71-20.83-11.66,0-21.9,9.73-21.9,20.83v.09c-.13-.01-.26-.04-.4-.04-.08,0-.16.02-.25.02v-20.39c0-11.34-10.44-21.29-22.35-21.29-11.04,0-20.1,8.91-20.7,20.1-.16-.02-.31-.05-.47-.05-.06,0-.11.01-.17.02V44.86c0-12.01-12.07-20.98-22.86-20.98-11.75,0-22.05,9.8-22.05,20.98v153.37l.14,21.24c-5.12-5.64-15.72-17.22-20.25-21.42-7.7-7.13-16.33-11.05-24.3-11.05-6.26,0-12.06,2.42-16.76,7-10.3,10.04-3.75,18.05,4.53,28.19,1.46,1.79,3.01,3.68,4.58,5.71,12.12,15.65,28.11,37.79,40.96,55.57,4.67,6.46,8.94,12.37,12.48,17.21,8.44,11.55,33.18,38.42,80.64,38.42,54.28,0,95.21-38.78,95.21-90.21v-81.04c0-11.34-10.44-21.3-22.35-21.3Z"/>
    <path class="st2" d="M168.86,342.34c-48.94,0-74.52-27.79-83.25-39.74-3.54-4.84-7.87-10.83-12.45-17.18-12.84-17.77-28.83-39.89-40.93-55.53-1.55-2-3.06-3.85-4.53-5.64-8.59-10.51-16.7-20.44-4.28-32.56,5.32-5.18,11.89-7.92,19.02-7.92,8.8,0,18.21,4.23,26.51,11.92,3.23,2.99,9.36,9.52,14.76,15.39l-.08-12.84V44.86c0-12.9,11.82-24.22,25.29-24.22,12.32,0,26.1,10.36,26.1,24.22v73.56c4.5-5.31,11.06-8.44,18.09-8.44,13.63,0,25.59,11.46,25.59,24.53v5.24c4.81-5.58,11.94-9,19.31-9,11.3,0,23.84,8.76,25.71,20.94,4.51-5.26,11.07-8.38,18.03-8.38,13.63,0,25.59,11.46,25.59,24.53v81.04c0,53.28-42.33,93.45-98.45,93.45ZM42.43,190.24c-5.48,0-10.35,2.05-14.49,6.08-7.84,7.65-4.2,12.83,4.78,23.82,1.48,1.81,3.04,3.72,4.63,5.78,12.16,15.72,28.19,37.9,41.07,55.72,4.65,6.43,8.89,12.31,12.42,17.13,8.15,11.15,32.05,37.09,78.02,37.09,52.43,0,91.97-37.39,91.97-86.97v-81.04c0-9.62-8.93-18.06-19.11-18.06-9.64,0-17.49,8.1-17.49,18.06v26.8c0,1.77-1.46,3.1-3.39,3.1s-3.39-1.33-3.39-3.1v-39.84c0-9.9-10.46-17.59-19.46-17.59-9.94,0-18.66,8.22-18.66,17.59v39.84c0,1.77-1.53,3.1-3.56,3.1s-3.56-1.33-3.56-3.1v-60.15c0-9.61-8.93-18.05-19.11-18.05-9.65,0-17.49,8.1-17.49,18.05v60.15c0,1.77-1.52,3.1-3.54,3.1s-3.54-1.33-3.54-3.1V44.86c0-9.99-10.55-17.74-19.62-17.74-10.02,0-18.81,8.29-18.81,17.74v153.36l.19,29.74-2.85-3.17c-.17-.19-17.05-18.94-22.9-24.36-7.09-6.57-14.94-10.19-22.1-10.19Z"/>
  </g>
  <g>
    <path class="st1" d="M23.43,162.39l-.1-.03c.32-1.16,7.51-28.56-23.33-38.89l1.25-9.73c12.64-.85,26.09-4.41,40.16-10.64-5.26-.53-9.95-1.86-13.99-3.95-9.77-4.91-15.64-14.23-15.64-24.9s5.87-19.99,15.7-24.93c5.34-2.77,11.91-4.19,19.47-4.19,4.71,0,9.78.56,15.06,1.66,13.44,2.8,25.08,7.82,32.48,11.54,3.7,1.92,6.53,3.6,8.72,5.19,2.51-.32,5.17-.49,7.92-.49,1.43,0,2.85.05,4.26.14C146.71,31.82,171.44.32,171.69,0l8.73,4.52c-.59,2.03-5.17,20.27,16.27,27.79l-1.39,9.71c-5.72.3-11.67,1.35-17.83,3.15,6.66.25,12.5,1.65,17.38,4.18,9.63,4.83,15.65,14.38,15.65,24.9s-5.87,19.99-15.71,24.93c-5.34,2.77-11.9,4.19-19.46,4.19h0c-4.71,0-9.77-.56-15.06-1.66-13.44-2.81-25.08-7.83-32.48-11.54-3.7-1.92-6.53-3.6-8.72-5.2-2.52.32-5.17.49-7.92.49s-5.4-.16-7.92-.49c-.58.42-1.21.85-1.89,1.3-38.92,40.75-68.9,80.08-69.2,80.47l-8.7-4.35ZM138.41,74.25c.81.63,2.28,1.6,4.94,2.97,4.3,2.16,11.14,5.11,18.95,6.74,2.87.6,5.58.9,8.06.9,3.56,0,6.54-.61,8.85-1.81,3.58-1.8,5.69-5.08,5.69-8.8s-2.1-7.01-5.63-8.78c-2.37-1.23-5.34-1.84-8.9-1.84-2.49,0-5.2.3-8.07.9-7.82,1.63-14.66,4.58-19.01,6.77-2.61,1.36-4.07,2.32-4.87,2.94ZM51.91,63.64c-3.56,0-6.53.61-8.84,1.81-3.58,1.8-5.69,5.08-5.69,8.81s2.1,7.01,5.63,8.77c2.37,1.23,5.35,1.84,8.91,1.84,2.48,0,5.2-.3,8.06-.9,7.83-1.64,14.66-4.58,19.01-6.77,2.62-1.36,4.07-2.32,4.88-2.94-.81-.63-2.28-1.6-4.94-2.97-4.29-2.16-11.12-5.11-18.95-6.74-2.87-.6-5.58-.9-8.07-.9Z"/>
    <path class="st0" d="M192.53,53.79c-8-4.15-19.05-4.65-31.26-2.11-8.91,1.86-17.2,4.79-24.15,7.8,16.89-11.34,37.18-21.36,57.9-22.45-26.77-9.39-19.4-33.95-19.4-33.95,0,0-25.64,32.78-58.34,65.28-1.94-.2-4-.32-6.15-.32-3.37,0-6.54.27-9.3.75-2.24-1.91-5.51-3.88-9.58-5.99-8-4.02-19.05-8.57-31.26-11.12-12.21-2.54-23.26-2.05-31.26,2.1-8,4.02-12.95,11.68-12.95,20.46s4.95,16.44,12.95,20.46c8,4.15,19.05,4.65,31.26,2.11,1.83-.38,3.64-.82,5.41-1.28-19.67,12.02-42,21.67-64.82,23.2,35.94,12.04,26.56,44.98,26.56,44.98,0,0,30.18-39.73,69.98-81.33,1.44-.91,2.68-1.79,3.71-2.67,2.77.48,5.93.75,9.3.75s6.54-.27,9.31-.75c2.24,1.91,5.51,3.88,9.58,5.99,8,4.02,19.05,8.57,31.26,11.12,12.21,2.54,23.26,2.05,31.26-2.11,8-4.02,12.95-11.68,12.95-20.46s-4.95-16.44-12.95-20.46ZM40.76,87.49c-5.18-2.6-8.38-7.56-8.38-13.24s3.2-10.65,8.38-13.24c5.18-2.69,12.33-3.01,20.23-1.36,7.9,1.65,15.06,4.59,20.23,7.19,5.18,2.68,8.38,5.03,8.38,7.41s-3.2,4.72-8.38,7.41c-5.18,2.6-12.33,5.54-20.23,7.2-7.9,1.65-15.06,1.32-20.23-1.36ZM181.5,87.49c-5.18,2.69-12.33,3.01-20.23,1.36-7.9-1.65-15.06-4.6-20.23-7.2-5.18-2.69-8.38-5.02-8.38-7.41s3.2-4.72,8.38-7.41c5.18-2.6,12.34-5.55,20.24-7.19,7.9-1.65,15.05-1.33,20.23,1.36,5.18,2.6,8.38,7.56,8.38,13.24s-3.2,10.64-8.38,13.24Z"/>
  </g>
</svg>